.
 
http://www.scenetime.com    -   SceneTime [ We been having it ] !!!


How come you press harder on a remote control when you know the battery is dead? so you better seed to get speed ;)

        Seed back for speed


...................................NFO:.................................................








































          
          
              
              
                    
                    
                    
                    

Blazing.Saddles.1974.BRRip.x264-SiC

Poster:
[img]http://leetleech.org/images/36498622890609325404.jpg[/img]

IMDB Link:
http://www.imdb.com/title/tt0071230/

Description:
To ruin a western town, a corrupt political boss appoints a black sheriff, who promptly becomes his most formidable adversary.

MediaInfo:
General
Complete name                    : Blazing.Saddles.1974.BRRip.x264-SiC.mp4
Format                           : MPEG-4
Format profile                   : Base Media
Codec ID                         : isom
File size                        : 1.00 GiB
Duration                         : 1h 32mn
Overall bit rate                 : 1 543 Kbps
Encoded date                     : UTC 2011-08-01 04:33:53
Tagged date                      : UTC 2011-08-01 04:33:53

Video
ID                               : 1
Format                           : AVC
Format/Info                      : Advanced Video Codec
Format profile                   : High@L3.0
Format settings, CABAC           : Yes
Format settings, ReFrames        : 4 frames
Codec ID                         : avc1
Codec ID/Info                    : Advanced Video Coding
Duration                         : 1h 32mn
Bit rate mode                    : Variable
Bit rate                         : 1 411 Kbps
Maximum bit rate                 : 3 766 Kbps
Width                            : 720 pixels
Height                           : 304 pixels
Display aspect ratio             : 2.35:1
Frame rate mode                  : Constant
Frame rate                       : 23.976 fps
Resolution                       : 8 bits
Colorimetry                      : 4:2:0
Scan type                        : Progressive
Bits/(Pixel*Frame)               : 0.269
Stream size                      : 937 MiB (91%)
Title                            : Blazing.Saddles.1974.BRRip.x264-SiC
Encoded date                     : UTC 2011-08-01 04:33:53
Tagged date                      : UTC 2011-08-01 04:34:13

Audio
ID                               : 2
Format                           : AAC
Format/Info                      : Advanced Audio Codec
Format version                   : Version 4
Format profile                   : LC
Format settings, SBR             : No
Codec ID                         : 40
Duration                         : 1h 32mn
Bit rate mode                    : Variable
Bit rate                         : 128 Kbps
Maximum bit rate                 : 229 Kbps
Channel(s)                       : 2 channels
Channel positions                : Front: L R
Sampling rate                    : 48.0 KHz
Stream size                      : 85.1 MiB (8%)
Title                            : 2ch English
Language                         : English
Encoded date                     : UTC 2011-08-01 04:34:07
Tagged date                      : UTC 2011-08-01 04:34:13

Screenshots:
[img]http://leetleech.org/images/19770365725642249291.png[/img]
[img]http://leetleech.org/images/21804276262592373429.png[/img]
[img]http://leetleech.org/images/57896045168324890214.png[/img]
[img]http://leetleech.org/images/68673637506716939425.png[/img]
[img]http://leetleech.org/images/61651356235966009831.png[/img]

Note :   N/A 

Source : BluRay-CHD Thanks!!!

Encoder: Bezauk

Enjoy!

Respects to CaptainHomey, Cyanide, CM8, Rx, THC, ELEKTRI4KA, 
Killerhz, PA, YeFsTe, BoxSlots, MrRep and everyone in the struggle...